# xmcd
# 
# Track frame offsets:
#     150
#     18704
#     37755
#     55433
#     70114
#     87200
#     97451
#     118853
#     145046
#     166430
#     181925
#     205546
#     218281
#     235431
# 
# Disc length: 3363
# 
# Revision: 3
# Processed by: cddbd v1.5.2PL0 Copyright (c) Steve Scherf et al.
# Submitted via: fre:ac v1.0.27
# 
DISCID=c10d210e
DTITLE=David Orlowsky Trio - Nessiah
DYEAR=2008
DGENRE=Jazz
TTITLE0=Arabertantz - Heyser Bulgar
TTITLE1=Le Tigre
TTITLE2=Mandala
TTITLE3=Nessiah
TTITLE4=Aer
TTITLE5=Twisted Bulgar
TTITLE6=Gra
TTITLE7=Berenike
TTITLE8=Macedoni
TTITLE9=Waits' Dance
TTITLE10=North
TTITLE11=Nacht und Wind
TTITLE12=Ballade
TTITLE13=Amata
EXTD=YEAR: 2008
EXTT0=
EXTT1=
EXTT2=
EXTT3=
EXTT4=
EXTT5=
EXTT6=
EXTT7=
EXTT8=
EXTT9=
EXTT10=
EXTT11=
EXTT12=
EXTT13=
PLAYORDER=
